<svg width="64" height="64" viewBox="0 0 64 64" fill="none" xmlns="http://www.w3.org/2000/svg">
<path d="M29.4148 23.919C28.6338 23.1379 27.3674 23.1379 26.5864 23.919C25.8053 24.7 25.8053 25.9663 26.5864 26.7474L31.8389 31.9999L26.5864 37.2523C25.8054 38.0333 25.8054 39.2997 26.5864 40.0807C27.3675 40.8618 28.6338 40.8618 29.4149 40.0807L34.6673 34.8283L39.9197 40.0807C40.7007 40.8617 41.967 40.8617 42.7481 40.0807C43.5291 39.2996 43.5291 38.0333 42.7481 37.2522L37.4957 31.9999L42.7481 26.7474C43.5292 25.9664 43.5292 24.7001 42.7481 23.919C41.9671 23.138 40.7008 23.138 39.9197 23.919L34.6673 29.1714L29.4148 23.919Z" fill="#C28B3A"/>
<path fill-rule="evenodd" clip-rule="evenodd" d="M56.8516 12.3573C54.8109 10.3715 52.2286 9.49219 49.0316 9.07393C45.917 8.66644 41.9342 8.66647 36.8917 8.6665H29.6161C26.7281 8.66648 24.4228 8.66647 22.535 8.84227C20.5859 9.02377 18.9334 9.40245 17.3743 10.2434C15.8126 11.0857 14.6005 12.2536 13.4027 13.7742C12.2459 15.2428 11.0217 17.1488 9.49313 19.5288L7.56603 22.5293C6.29098 24.5145 5.24987 26.1354 4.54011 27.5479C3.79861 29.0236 3.33398 30.4292 3.33398 31.9998C3.33398 33.5705 3.79861 34.9761 4.54012 36.4518C5.24986 37.8643 6.29094 39.4852 7.56597 41.4703L9.49316 44.4709C11.0217 46.8509 12.2459 48.7569 13.4027 50.2255C14.6005 51.7461 15.8126 52.914 17.3743 53.7563C18.9334 54.5972 20.5859 54.9759 22.535 55.1574C24.4228 55.3332 26.728 55.3332 29.616 55.3332H36.8916C41.9341 55.3332 45.917 55.3332 49.0316 54.9257C52.2286 54.5075 54.8109 53.6282 56.8516 51.6423C58.8999 49.6491 59.8138 47.1144 60.2472 43.9778C60.6674 40.9362 60.6674 37.0513 60.6673 32.1536V31.8457C60.6674 26.9482 60.6674 23.0634 60.2472 20.0219C59.8138 16.8853 58.8999 14.3506 56.8516 12.3573ZM36.7445 12.6665C41.9668 12.6665 45.6877 12.6705 48.5127 13.0401C51.2856 13.4029 52.8922 14.0857 54.062 15.2241C55.2242 16.355 55.9155 17.8965 56.2848 20.5693C56.6628 23.3054 56.6673 26.9135 56.6673 31.9998C56.6673 37.0862 56.6628 40.6943 56.2848 43.4303C55.9155 46.1031 55.2242 47.6447 54.062 48.7756C52.8922 49.914 51.2856 50.5968 48.5127 50.9595C45.6877 51.3291 41.9669 51.3332 36.7445 51.3332H29.7128C26.7062 51.3332 24.5868 51.3312 22.9059 51.1746C21.2653 51.0219 20.1932 50.732 19.2731 50.2357C18.3556 49.7409 17.541 49.0148 16.545 47.7503C15.5214 46.451 14.3996 44.7083 12.8051 42.2257L10.9896 39.399C9.64255 37.3016 8.71806 35.8575 8.11427 34.6558C7.5315 33.4961 7.33398 32.7236 7.33398 31.9998C7.33398 31.2761 7.5315 30.5036 8.11427 29.3438C8.71806 28.1422 9.64255 26.698 10.9896 24.6007L12.8051 21.774C14.3996 19.2914 15.5214 17.5487 16.545 16.2493C17.541 14.9848 18.3556 14.2588 19.2731 13.7639C20.1932 13.2677 21.2653 12.9778 22.9059 12.825C24.5868 12.6685 26.7062 12.6665 29.7128 12.6665L36.7445 12.6665Z" fill="#C28B3A"/>
</svg>
