<svg width="192" height="192" viewBox="0 0 192 192" fill="none" xmlns="http://www.w3.org/2000/svg">
<path d="M128.243 80.2426C130.586 77.8995 130.586 74.1005 128.243 71.7574C125.899 69.4142 122.101 69.4142 119.757 71.7574L84 107.515L72.2426 95.7574C69.8995 93.4142 66.1005 93.4142 63.7574 95.7574C61.4142 98.1005 61.4142 101.899 63.7574 104.243L79.7574 120.243C82.1005 122.586 85.8995 122.586 88.2426 120.243L128.243 80.2426Z" fill="#C28B3A"/>
<path fill-rule="evenodd" clip-rule="evenodd" d="M96 10C48.5035 10 10 48.5035 10 96C10 143.496 48.5035 182 96 182C143.496 182 182 143.496 182 96C182 48.5035 143.496 10 96 10ZM22 96C22 55.1309 55.1309 22 96 22C136.869 22 170 55.1309 170 96C170 136.869 136.869 170 96 170C55.1309 170 22 136.869 22 96Z" fill="#C28B3A"/>
</svg>
