<svg width="192" height="192" viewBox="0 0 192 192" fill="none" xmlns="http://www.w3.org/2000/svg">
<path d="M80.2424 71.7572C77.8993 69.4141 74.1003 69.4141 71.7571 71.7572C69.414 74.1004 69.414 77.8994 71.7571 80.2425L87.5146 96L71.7573 111.757C69.4141 114.1 69.4141 117.899 71.7573 120.243C74.1004 122.586 77.8994 122.586 80.2426 120.243L95.9998 104.485L111.757 120.242C114.1 122.586 117.899 122.586 120.242 120.242C122.585 117.899 122.585 114.1 120.242 111.757L104.485 96L120.242 80.2427C122.586 77.8995 122.586 74.1005 120.242 71.7574C117.899 69.4143 114.1 69.4143 111.757 71.7574L95.9998 87.5147L80.2424 71.7572Z" fill="#C28B3A"/>
<path fill-rule="evenodd" clip-rule="evenodd" d="M96 10C48.5035 10 10 48.5035 10 96C10 143.496 48.5035 182 96 182C143.496 182 182 143.496 182 96C182 48.5035 143.496 10 96 10ZM22 96C22 55.1309 55.1309 22 96 22C136.869 22 170 55.1309 170 96C170 136.869 136.869 170 96 170C55.1309 170 22 136.869 22 96Z" fill="#C28B3A"/>
</svg>
