<svg width="48" height="49" viewBox="0 0 48 49" fill="none" xmlns="http://www.w3.org/2000/svg">
<path fill-rule="evenodd" clip-rule="evenodd" d="M12.4743 9.92294C13.2602 9.66097 13.685 8.81149 13.423 8.02558C13.161 7.23966 12.3116 6.81492 11.5256 7.07689L10.4161 7.44676C9.27427 7.82731 8.30642 8.14989 7.53813 8.50106C6.72055 8.87477 6.00489 9.33329 5.43519 10.0526C4.8655 10.7719 4.58308 11.5735 4.40657 12.455C4.24069 13.2833 4.14836 14.2993 4.03944 15.4979L2.64492 30.8377C2.55057 31.3723 2.50093 31.9224 2.5 32.4839C2.51088 37.7213 6.76 41.9999 12 41.9999C16.7265 41.9999 20.6468 38.5482 21.3777 34.028L21.8158 33.8718C23.2283 33.3678 24.7717 33.3678 26.1842 33.8718L26.6222 34.0281C27.3532 38.5482 31.2735 41.9999 36 41.9999C41.2399 41.9999 45.489 37.7212 45.5 32.4838C45.499 31.9223 45.4494 31.3723 45.355 30.8377L43.9605 15.4979C43.8516 14.2993 43.7593 13.2833 43.5934 12.455C43.4169 11.5735 43.1345 10.7719 42.5648 10.0526C41.9951 9.33329 41.2794 8.87477 40.4618 8.50106C39.6935 8.14989 38.7257 7.82731 37.5839 7.44676L36.4743 7.07689C35.6884 6.81492 34.8389 7.23966 34.577 8.02558C34.315 8.81149 34.7397 9.66097 35.5256 9.92294L36.562 10.2684C37.7967 10.68 38.6102 10.9532 39.2147 11.2295C39.7863 11.4908 40.0427 11.7002 40.213 11.9152C40.3834 12.1302 40.5284 12.4278 40.6518 13.0441C40.7823 13.6958 40.862 14.5502 40.9798 15.8464L41.8105 24.9835C40.2042 23.74 38.1885 22.9999 36 22.9999C31.3098 22.9999 27.4134 26.3988 26.6396 30.8679C24.9154 30.3691 23.0846 30.3691 21.3603 30.8679C20.5866 26.3988 16.6902 22.9999 12 22.9999C9.81144 22.9999 7.79574 23.74 6.18949 24.9835L6.28618 23.9199L7.02014 15.8464C7.13797 14.5502 7.21765 13.6958 7.34816 13.0441C7.47157 12.4278 7.61662 12.1302 7.78693 11.9152C7.95725 11.7002 8.21369 11.4908 8.78529 11.2295C9.38981 10.9532 10.2033 10.68 11.438 10.2684L12.4743 9.92294ZM42.3804 31.2523L42.4997 32.5645C42.465 36.1246 39.5683 38.9999 36 38.9999C32.4101 38.9999 29.5 36.0898 29.5 32.4999C29.5 28.9101 32.4101 25.9999 36 25.9999C39.1631 25.9999 41.7985 28.2593 42.3804 31.2523ZM5.61959 31.2523L5.5003 32.5645C5.53499 36.1246 8.43171 38.9999 12 38.9999C15.5898 38.9999 18.5 36.0898 18.5 32.4999C18.5 28.9101 15.5898 25.9999 12 25.9999C8.83685 25.9999 6.20142 28.2593 5.61959 31.2523Z" fill="#C28B3A"/>
</svg>
