<svg width="65" height="64" viewBox="0 0 65 64" fill="none" xmlns="http://www.w3.org/2000/svg">
<path d="M14.0113 14.1197C13.667 14.605 13.667 15.2922 13.667 16.6666C13.667 18.041 13.667 18.7282 14.0113 19.2134C14.1328 19.3847 14.2823 19.5342 14.4535 19.6556C14.9387 19.9999 15.6259 19.9999 17.0003 19.9999C18.3747 19.9999 19.062 19.9999 19.5472 19.6556C19.7184 19.5342 19.8679 19.3847 19.9894 19.2134C20.3337 18.7282 20.3337 18.041 20.3337 16.6666C20.3337 15.2922 20.3337 14.605 19.9894 14.1197C19.8679 13.9485 19.7184 13.799 19.5472 13.6775C19.062 13.3333 18.3747 13.3333 17.0003 13.3333C15.6259 13.3333 14.9387 13.3333 14.4535 13.6775C14.2823 13.799 14.1328 13.9485 14.0113 14.1197Z" fill="white"/>
<path fill-rule="evenodd" clip-rule="evenodd" d="M23.5447 3.44048C24.7244 3.55263 25.8237 3.796 26.832 4.41389C27.8187 5.01857 28.6484 5.84819 29.253 6.83493C29.8709 7.84325 30.1143 8.94256 30.2264 10.1222C30.3337 11.2506 30.3337 12.6398 30.3337 14.3045L30.3337 17.4719C30.3337 19.8678 30.3338 21.8658 30.1206 23.4519C29.8955 25.126 29.4004 26.6375 28.1858 27.852C26.9712 29.0666 25.4597 29.5617 23.7856 29.7868C22.1995 30.0001 20.2016 30 17.8057 29.9999L14.6385 29.9999C12.9738 30 11.5843 30 10.4559 29.8927C9.2763 29.7805 8.17699 29.5372 7.16867 28.9193C6.18193 28.3146 5.35231 27.485 4.74764 26.4982C4.12974 25.4899 3.88638 24.3906 3.77422 23.211C3.66693 22.0826 3.66696 20.6933 3.66699 19.0285V18.8329C3.66697 16.2994 3.66695 14.2561 3.82334 12.6113C3.98461 10.9151 4.32622 9.43721 5.14059 8.10827C5.96515 6.76272 7.09646 5.63141 8.44201 4.80685C9.77095 3.99248 11.2488 3.65087 12.945 3.4896C14.5898 3.33321 16.633 3.33323 19.1665 3.33325H19.3622C21.027 3.33322 22.4163 3.33319 23.5447 3.44048ZM23.1661 7.42252C22.2495 7.33537 21.0516 7.33326 19.267 7.33326C16.6095 7.33326 14.7569 7.33537 13.3237 7.47164C11.9202 7.60508 11.1268 7.85291 10.532 8.21741C9.72467 8.71215 9.04589 9.39093 8.55116 10.1983C8.18665 10.7931 7.93882 11.5865 7.80538 12.9899C7.66911 14.4231 7.667 16.2758 7.667 18.9333C7.667 20.7178 7.66911 21.9158 7.75626 22.8324C7.84058 23.7192 7.99017 24.1341 8.1582 24.4083C8.43305 24.8568 8.81015 25.2339 9.25867 25.5087C9.53286 25.6768 9.94771 25.8263 10.8345 25.9107C11.7511 25.9978 12.9491 25.9999 14.7337 25.9999H17.667C20.2377 25.9999 21.9645 25.9957 23.2526 25.8225C24.4832 25.6571 25.0098 25.3711 25.3574 25.0236C25.7049 24.6761 25.9908 24.1494 26.1562 22.9189C26.3294 21.6308 26.3337 19.904 26.3337 17.3333V14.3999C26.3337 12.6154 26.3316 11.4174 26.2444 10.5008C26.1601 9.61397 26.0105 9.19912 25.8425 8.92493C25.5676 8.47641 25.1905 8.09931 24.742 7.82446C24.4678 7.65643 24.0529 7.50684 23.1661 7.42252Z" fill="white"/>
<path d="M44.678 14.1197C44.3337 14.605 44.3337 15.2922 44.3337 16.6666C44.3337 18.041 44.3337 18.7282 44.678 19.2134C44.7994 19.3847 44.9489 19.5342 45.1201 19.6556C45.6054 19.9999 46.2926 19.9999 47.667 19.9999C49.0414 19.9999 49.7286 19.9999 50.2138 19.6556C50.3851 19.5342 50.5346 19.3847 50.656 19.2134C51.0003 18.7282 51.0003 18.041 51.0003 16.6666C51.0003 15.2922 51.0003 14.605 50.656 14.1197C50.5346 13.9485 50.3851 13.799 50.2138 13.6775C49.7286 13.3333 49.0414 13.3333 47.667 13.3333C46.2926 13.3333 45.6054 13.3333 45.1201 13.6775C44.9489 13.799 44.7994 13.9485 44.678 14.1197Z" fill="white"/>
<path fill-rule="evenodd" clip-rule="evenodd" d="M45.3052 3.33325H45.5007C48.0342 3.33323 50.0775 3.33321 51.7223 3.4896C53.4185 3.65087 54.8964 3.99248 56.2253 4.80685C57.5709 5.63141 58.7022 6.76272 59.5267 8.10827C60.3411 9.43721 60.6827 10.9151 60.844 12.6113C61.0004 14.2561 61.0004 16.2993 61.0003 18.8328V19.0285C61.0004 20.6933 61.0004 22.0826 60.8931 23.211C60.781 24.3906 60.5376 25.4899 59.9197 26.4982C59.315 27.485 58.4854 28.3146 57.4987 28.9193C56.4903 29.5372 55.391 29.7805 54.2114 29.8927C53.0831 30 51.6939 30 50.0294 29.9999L46.8617 29.9999C44.4658 30 42.4678 30.0001 40.8817 29.7868C39.2076 29.5617 37.6961 29.0666 36.4815 27.852C35.267 26.6375 34.7718 25.126 34.5468 23.4519C34.3335 21.8658 34.3336 19.8679 34.3337 17.4719V14.3048C34.3336 12.6399 34.3336 11.2506 34.4409 10.1222C34.553 8.94256 34.7964 7.84325 35.4143 6.83493C36.019 5.84819 36.8486 5.01857 37.8353 4.41389C38.8437 3.796 39.943 3.55263 41.1226 3.44048C42.251 3.33319 43.6404 3.33322 45.3052 3.33325ZM41.5012 7.42252C40.6144 7.50684 40.1995 7.65643 39.9253 7.82446C39.4768 8.09931 39.0997 8.47641 38.8249 8.92493C38.6568 9.19912 38.5072 9.61397 38.4229 10.5008C38.3358 11.4174 38.3337 12.6154 38.3337 14.3999V17.3333C38.3337 19.904 38.3379 21.6308 38.5111 22.9189C38.6765 24.1494 38.9625 24.6761 39.31 25.0236C39.6575 25.3711 40.1841 25.6571 41.4147 25.8225C42.7028 25.9957 44.4296 25.9999 47.0003 25.9999H49.9337C51.7182 25.9999 52.9162 25.9978 53.8328 25.9107C54.7196 25.8263 55.1345 25.6768 55.4087 25.5087C55.8572 25.2339 56.2343 24.8568 56.5091 24.4083C56.6772 24.1341 56.8267 23.7192 56.9111 22.8324C56.9982 21.9158 57.0003 20.7178 57.0003 18.9333C57.0003 16.2758 56.9982 14.4231 56.8619 12.9899C56.7285 11.5865 56.4807 10.7931 56.1162 10.1983C55.6214 9.39093 54.9427 8.71215 54.1353 8.21741C53.5405 7.85291 52.7471 7.60508 51.3437 7.47164C49.9105 7.33537 48.0578 7.33326 45.4003 7.33326C43.6158 7.33326 42.4178 7.33537 41.5012 7.42252Z" fill="white"/>
<path d="M13.667 47.3333C13.667 45.9588 13.667 45.2716 14.0113 44.7864C14.1328 44.6152 14.2823 44.4657 14.4535 44.3442C14.9387 43.9999 15.6259 43.9999 17.0003 43.9999C18.3747 43.9999 19.062 43.9999 19.5472 44.3442C19.7184 44.4657 19.8679 44.6152 19.9894 44.7864C20.3337 45.2716 20.3337 45.9588 20.3337 47.3333C20.3337 48.7077 20.3337 49.3949 19.9894 49.8801C19.8679 50.0513 19.7184 50.2008 19.5472 50.3223C19.062 50.6666 18.3747 50.6666 17.0003 50.6666C15.6259 50.6666 14.9387 50.6666 14.4535 50.3223C14.2823 50.2008 14.1328 50.0513 14.0113 49.8801C13.667 49.3949 13.667 48.7077 13.667 47.3333Z" fill="white"/>
<path fill-rule="evenodd" clip-rule="evenodd" d="M23.7856 34.213C25.4597 34.4381 26.9712 34.9332 28.1858 36.1478C29.4004 37.3624 29.8955 38.8739 30.1206 40.548C30.3338 42.134 30.3337 44.1319 30.3337 46.5278L30.3337 49.6951C30.3337 51.3597 30.3337 52.7494 30.2264 53.8777C30.1143 55.0573 29.8709 56.1566 29.253 57.1649C28.6484 58.1517 27.8187 58.9813 26.832 59.5859C25.8237 60.2038 24.7244 60.4472 23.5447 60.5594C22.4163 60.6667 21.027 60.6666 19.3622 60.6666H19.1666C16.633 60.6666 14.5898 60.6666 12.945 60.5103C11.2488 60.349 9.77095 60.0074 8.44201 59.193C7.09646 58.3684 5.96515 57.2371 5.14059 55.8916C4.32622 54.5626 3.98461 53.0848 3.82334 51.3885C3.66695 49.7438 3.66697 47.7006 3.66699 45.1671V44.9714C3.66696 43.3066 3.66693 41.9173 3.77422 40.7889C3.88638 39.6092 4.12974 38.5099 4.74764 37.5016C5.35231 36.5149 6.18193 35.6852 7.16867 35.0806C8.17699 34.4627 9.2763 34.2193 10.4559 34.1071C11.5844 33.9999 12.9737 33.9999 14.6385 33.9999H17.8057C20.2016 33.9998 22.1995 33.9998 23.7856 34.213ZM23.2526 38.1774C21.9645 38.0042 20.2377 37.9999 17.667 37.9999H14.7337C12.9491 37.9999 11.7511 38.002 10.8345 38.0892C9.94771 38.1735 9.53286 38.3231 9.25867 38.4911C8.81015 38.766 8.43305 39.1431 8.1582 39.5916C7.99017 39.8658 7.84058 40.2806 7.75626 41.1675C7.66911 42.0841 7.667 43.282 7.667 45.0666C7.667 47.7241 7.66911 49.5767 7.80538 51.0099C7.93882 52.4134 8.18665 53.2068 8.55116 53.8016C9.04589 54.6089 9.72467 55.2877 10.532 55.7824C11.1268 56.1469 11.9202 56.3948 13.3237 56.5282C14.7569 56.6645 16.6095 56.6666 19.267 56.6666C21.0516 56.6666 22.2495 56.6645 23.1661 56.5773C24.0529 56.493 24.4678 56.3434 24.742 56.1754C25.1905 55.9005 25.5676 55.5234 25.8425 55.0749C26.0105 54.8007 26.1601 54.3859 26.2444 53.499C26.3316 52.5825 26.3337 51.3845 26.3337 49.5999V46.6666C26.3337 44.0959 26.3294 42.3691 26.1562 41.081C25.9908 39.8504 25.7049 39.3237 25.3574 38.9762C25.0098 38.6287 24.4832 38.3428 23.2526 38.1774Z" fill="white"/>
<path d="M45.5647 33.9999L51.0003 33.9999V37.9999H45.667C43.7528 37.9999 42.4676 38.0023 41.4879 38.102C40.5416 38.1983 40.1043 38.3685 39.8151 38.5617C39.4511 38.8049 39.1386 39.1174 38.8954 39.4814C38.7022 39.7706 38.532 40.2078 38.4357 41.1541C38.3361 42.1339 38.3337 43.419 38.3337 45.3333H34.3337L34.3337 45.231C34.3336 43.4455 34.3336 41.9555 34.4563 40.7493C34.5847 39.4867 34.864 38.3151 35.5696 37.2591C36.1046 36.4584 36.7921 35.7708 37.5928 35.2358C38.6488 34.5302 39.8205 34.251 41.0831 34.1225C42.2892 33.9998 43.7792 33.9999 45.5647 33.9999Z" fill="white"/>
<path d="M34.3337 58.6666V50.6666H38.3337V58.6666C38.3337 59.7712 37.4382 60.6666 36.3337 60.6666C35.2291 60.6666 34.3337 59.7712 34.3337 58.6666Z" fill="white"/>
<path d="M61.0003 35.9999C61.0003 34.8954 60.1049 33.9999 59.0003 33.9999C57.8958 33.9999 57.0003 34.8954 57.0003 35.9999V45.3333H61.0003V35.9999Z" fill="white"/>
<path d="M57.0003 50.6666C57.0003 51.9365 56.9992 52.7887 56.9542 53.4486C56.9104 54.0905 56.8318 54.4031 56.7466 54.6089C56.4083 55.4256 55.7594 56.0745 54.9426 56.4129C54.7369 56.4981 54.4243 56.5767 53.7823 56.6205C53.1224 56.6655 52.2702 56.6666 51.0003 56.6666H45.667V60.6666H51.0677C52.2528 60.6666 53.2424 60.6666 54.0546 60.6112C54.9002 60.5535 55.699 60.4291 56.4733 60.1084C58.2702 59.3641 59.6978 57.9365 60.4421 56.1396C60.7629 55.3652 60.8872 54.5665 60.9449 53.7209C61.0004 52.9086 61.0003 51.9193 61.0003 50.7342V50.6666H57.0003Z" fill="white"/>
<path d="M43.4497 43.8517C43.0003 44.5243 43.0003 45.4606 43.0003 47.3333C43.0003 49.2059 43.0003 50.1422 43.4497 50.8148C43.6443 51.1059 43.8943 51.356 44.1855 51.5505C44.8581 51.9999 45.7944 51.9999 47.667 51.9999C49.5396 51.9999 50.4759 51.9999 51.1485 51.5505C51.4397 51.356 51.6897 51.1059 51.8842 50.8148C52.3337 50.1422 52.3337 49.2059 52.3337 47.3333C52.3337 45.4606 52.3337 44.5243 51.8842 43.8517C51.6897 43.5606 51.4397 43.3106 51.1485 43.116C50.4759 42.6666 49.5396 42.6666 47.667 42.6666C45.7944 42.6666 44.8581 42.6666 44.1855 43.116C43.8943 43.3106 43.6443 43.5606 43.4497 43.8517Z" fill="white"/>
</svg>
