<svg width="96" height="96" viewBox="0 0 96 96" fill="none" xmlns="http://www.w3.org/2000/svg">
<path fill-rule="evenodd" clip-rule="evenodd" d="M31.808 11.2518C38.8326 4.2422 50.2275 4.24375 57.2593 11.2605C61.1668 15.1597 62.9046 20.3998 62.4695 25.5006C62.3288 27.1497 63.5545 28.6004 65.2072 28.7408C66.8598 28.8812 68.3136 27.6581 68.4543 26.009C69.0332 19.2223 66.718 12.2228 61.5065 7.0224C52.1314 -2.33263 36.9334 -2.33889 27.5608 7.01366C21.6401 12.9218 19.4651 21.1504 21.0223 28.7567C21.3543 30.3783 22.9408 31.4243 24.5659 31.093C26.191 30.7617 27.2392 29.1786 26.9072 27.557C25.7363 21.8379 27.3739 15.6764 31.808 11.2518ZM35.3017 24.7607C35.4588 20.4652 38.9926 17.0658 43.2999 17.0667L46.2141 17.0674C50.6378 17.0683 54.2257 20.6485 54.227 25.0631L54.2318 41.2437L72.9585 44.7553C76.7466 45.4656 79.4927 48.7675 79.4938 52.6135L79.5012 77.6555C79.5039 86.6849 72.511 94.1744 63.4857 94.8083L47.1656 95.9545C40.2854 96.4378 33.7756 92.7817 30.6166 86.6601L25.7513 77.2319L17.4127 61.3373C15.9685 58.5845 16.2529 55.2472 18.1419 52.7799L19.0433 51.6026C21.8012 48.0004 27.0084 47.41 30.5108 50.3023L34.2545 53.3938L35.3017 24.7607ZM43.3034 23.0606C42.2266 23.0603 41.3431 23.9102 41.3039 24.984L40.0346 59.6889L35.1201 61.8855L26.6839 54.9188C25.8083 54.1957 24.5065 54.3434 23.817 55.2439L22.9156 56.4212C22.4433 57.0381 22.3722 57.8724 22.7333 58.5606L31.0765 74.4639L31.0812 74.4729L31.0858 74.4819L35.9559 83.9193C38.0143 87.9081 42.2561 90.2904 46.7392 89.9755L63.0593 88.8293C68.9402 88.4163 73.4968 83.5361 73.495 77.6525L73.4876 52.6105C73.4873 51.649 72.8008 50.8235 71.8538 50.646L50.6771 46.6749L48.2271 46.2155L48.2263 43.7281L48.2208 25.0601C48.2205 23.9564 47.3235 23.0614 46.2176 23.0612L43.3034 23.0606Z" fill="white"/>
</svg>
